<?xml version="1.0" encoding="UTF-8"?>
<svg xmlns="http://www.w3.org/2000/svg" xmlns:xlink="http://www.w3.org/1999/xlink" viewBox="0 0 96 96" width="96px" height="96px">
<g id="surface60021">
<path style=" stroke:none;fill-rule:nonzero;fill:rgb(0.784314%,53.333336%,81.960785%);fill-opacity:1;" d="M 48 8 C 25.910156 8 8 25.910156 8 48 C 8 70.089844 25.910156 88 48 88 C 70.089844 88 88 70.089844 88 48 C 88 25.910156 70.089844 8 48 8 Z M 48 8 "/>
<path style=" stroke:none;fill-rule:nonzero;fill:rgb(100%,100%,100%);fill-opacity:1;" d="M 28 38 L 36 38 L 36 68 L 28 68 Z M 31.976562 34 L 31.933594 34 C 29.542969 34 28 32.21875 28 29.996094 C 28 27.726562 29.59375 26 32.023438 26 C 34.457031 26 35.953125 27.726562 36 29.996094 C 36 32.21875 34.457031 34 31.976562 34 Z M 70 49 C 70 42.925781 65.074219 38 59 38 C 55.277344 38 51.988281 39.855469 50 42.6875 L 50 38 L 42 38 L 42 68 L 50 68 L 50 52 C 50 48.6875 52.6875 46 56 46 C 59.3125 46 62 48.6875 62 52 L 62 68 L 70 68 C 70 68 70 49.84375 70 49 Z M 70 49 "/>
</g>
</svg>
